<svg width="396" height="102" viewBox="0 0 396 102" fill="none" xmlns="http://www.w3.org/2000/svg">
<path d="M1.78788 76.682L23.8879 96.7582C24.7081 97.5044 25.7927 97.92 26.92 97.92C28.0473 97.92 29.1319 97.5044 29.9521 96.7582L52.0521 76.682C52.6317 76.1543 53.0526 75.4854 53.2705 74.7458C53.4883 74.0063 53.495 73.2237 53.2897 72.4808L40.5822 26.3102L52.556 10.9043C53.0485 10.2706 53.3484 9.51713 53.4221 8.72824C53.4958 7.93934 53.3404 7.14622 52.9734 6.43775C52.6063 5.72928 52.042 5.13345 51.3437 4.71702C50.6455 4.30059 49.8408 4.08002 49.02 4.08002H4.82C3.99915 4.08002 3.19452 4.30059 2.49626 4.71702C1.79801 5.13345 1.23372 5.72928 0.866627 6.43775C0.499533 7.14622 0.344139 7.93934 0.417856 8.72824C0.491572 9.51713 0.791487 10.2706 1.28399 10.9043L13.2578 26.3102L0.550276 72.4808C0.345008 73.2237 0.351656 74.0063 0.569514 74.7458C0.787372 75.4854 1.20834 76.1543 1.78788 76.682ZM40.18 12.6104L33.55 21.1408H20.29L13.66 12.6104H40.18ZM21.479 29.6711H32.361L44.0696 72.2163L26.92 87.7928L9.77039 72.2163L21.479 29.6711Z" fill="url(#paint0_linear_107_306)"/>
<path d="M110.52 84.17C105.78 84.17 101.43 83.24 97.47 81.38C93.51 79.52 90.06 77 87.12 73.82C84.24 70.58 81.99 66.89 80.37 62.75C78.75 58.55 77.94 54.14 77.94 49.52C77.94 44.9 78.72 40.49 80.28 36.29C81.9 32.09 84.18 28.34 87.12 25.04C90.06 21.74 93.54 19.13 97.56 17.21C101.58 15.29 106.02 14.33 110.88 14.33C114 14.33 116.67 14.78 118.89 15.68C121.17 16.52 123.51 17.84 125.91 19.64L129.87 15.14H132.12V35.93H129.42C128.76 32.45 127.65 29.33 126.09 26.57C124.59 23.75 122.55 21.53 119.97 19.91C117.45 18.29 114.3 17.48 110.52 17.48C108.3 17.48 106.23 17.9 104.31 18.74C102.45 19.58 100.83 21.17 99.45 23.51C98.07 25.79 96.99 29.12 96.21 33.5C95.43 37.82 95.04 43.49 95.04 50.51C95.04 56.69 95.34 61.79 95.94 65.81C96.6 69.77 97.59 72.86 98.91 75.08C100.23 77.3 101.85 78.86 103.77 79.76C105.75 80.6 108.03 81.02 110.61 81.02C114.69 81.02 118.08 80.21 120.78 78.59C123.54 76.97 125.7 74.84 127.26 72.2C128.88 69.5 130.02 66.59 130.68 63.47H133.38V83H130.68L126.72 78.86C124.14 80.72 121.5 82.07 118.8 82.91C116.16 83.75 113.4 84.17 110.52 84.17ZM174.414 84.17C169.734 84.17 165.354 83.21 161.274 81.29C157.254 79.37 153.714 76.76 150.654 73.46C147.654 70.16 145.284 66.41 143.544 62.21C141.864 58.01 141.024 53.6 141.024 48.98C141.024 44.36 141.864 39.98 143.544 35.84C145.284 31.64 147.654 27.95 150.654 24.77C153.714 21.53 157.254 18.98 161.274 17.12C165.354 15.26 169.734 14.33 174.414 14.33C179.094 14.33 183.474 15.26 187.554 17.12C191.634 18.98 195.174 21.53 198.174 24.77C201.234 27.95 203.604 31.64 205.284 35.84C207.024 39.98 207.894 44.36 207.894 48.98C207.894 53.6 207.024 58.01 205.284 62.21C203.604 66.41 201.234 70.16 198.174 73.46C195.174 76.76 191.634 79.37 187.554 81.29C183.474 83.21 179.094 84.17 174.414 84.17ZM174.324 81.02C177.384 81.02 179.964 80.57 182.064 79.67C184.164 78.71 185.844 77.06 187.104 74.72C188.424 72.38 189.354 69.14 189.894 65C190.494 60.86 190.794 55.58 190.794 49.16C190.794 42.74 190.494 37.49 189.894 33.41C189.354 29.27 188.424 26.06 187.104 23.78C185.844 21.44 184.164 19.82 182.064 18.92C179.964 17.96 177.384 17.48 174.324 17.48C171.324 17.48 168.774 17.96 166.674 18.92C164.634 19.82 162.984 21.41 161.724 23.69C160.464 25.97 159.534 29.18 158.934 33.32C158.394 37.4 158.124 42.62 158.124 48.98C158.124 55.52 158.394 60.89 158.934 65.09C159.534 69.23 160.464 72.47 161.724 74.81C163.044 77.09 164.724 78.71 166.764 79.67C168.864 80.57 171.384 81.02 174.324 81.02ZM235.546 47.72V45.02H243.016C245.896 45.02 248.236 44.66 250.036 43.94C251.836 43.22 253.126 41.87 253.906 39.89C254.746 37.91 255.166 35.03 255.166 31.25C255.166 27.41 254.776 24.56 253.996 22.7C253.216 20.78 252.046 19.49 250.486 18.83C248.986 18.17 247.096 17.84 244.816 17.84H213.316V15.14H249.316C253.636 15.14 257.506 15.77 260.926 17.03C264.406 18.23 267.166 19.97 269.206 22.25C271.246 24.53 272.266 27.32 272.266 30.62C272.266 34.28 271.096 37.4 268.756 39.98C266.416 42.5 263.056 44.42 258.676 45.74C254.356 47.06 249.136 47.72 243.016 47.72H235.546ZM213.316 83V80.3H246.706V83H213.316ZM221.866 81.65V15.14H236.086V81.65H221.866ZM268.936 83C265.936 83 263.236 82.43 260.836 81.29C258.436 80.15 256.486 78.56 254.986 76.52C253.546 74.42 252.766 71.99 252.646 69.23L252.196 59.42C252.016 55.4 250.846 52.46 248.686 50.6C246.526 48.68 243.766 47.72 240.406 47.72L247.246 47.18H253.276V47.54C255.976 48.14 258.586 49.31 261.106 51.05C263.686 52.79 265.786 54.89 267.406 57.35C269.026 59.81 269.836 62.48 269.836 65.36V69.41C269.836 73.55 270.286 76.37 271.186 77.87C272.086 79.37 273.706 80.12 276.046 80.12H279.466V83H268.936ZM302.167 52.22V49.52H309.637C312.937 49.52 315.607 49.1 317.647 48.26C319.687 47.36 321.187 45.74 322.147 43.4C323.107 41 323.587 37.55 323.587 33.05C323.587 28.79 323.197 25.58 322.417 23.42C321.637 21.26 320.467 19.79 318.907 19.01C317.407 18.23 315.517 17.84 313.237 17.84H279.937V15.14H317.737C322.057 15.14 325.927 15.92 329.347 17.48C332.827 19.04 335.587 21.2 337.627 23.96C339.667 26.66 340.687 29.78 340.687 33.32C340.687 37.04 339.427 40.34 336.907 43.22C334.447 46.04 330.907 48.26 326.287 49.88C321.667 51.44 316.117 52.22 309.637 52.22H302.167ZM279.937 83V80.3H313.327V83H279.937ZM288.487 81.65V15.14H302.707V81.65H288.487ZM344.168 84.17C342.008 84.17 340.148 83.42 338.588 81.92C337.088 80.36 336.338 78.5 336.338 76.34C336.338 74.18 337.088 72.35 338.588 70.85C340.148 69.29 342.008 68.51 344.168 68.51C346.328 68.51 348.158 69.29 349.658 70.85C351.218 72.35 351.998 74.18 351.998 76.34C351.998 78.5 351.218 80.36 349.658 81.92C348.158 83.42 346.328 84.17 344.168 84.17Z" fill="#E8E7EA"/>
<defs>
<linearGradient id="paint0_linear_107_306" x1="26.92" y1="4.08002" x2="26.92" y2="97.92" gradientUnits="userSpaceOnUse">
<stop stop-color="#80E67C"/>
<stop offset="1" stop-color="#57AC67"/>
</linearGradient>
</defs>
</svg>
