<svg width="166" height="50" viewBox="0 0 166 50" fill="none" xmlns="http://www.w3.org/2000/svg">
<path d="M1.18033 37.5892L12.0137 47.4305C12.4157 47.7963 12.9474 48 13.5 48C14.0526 48 14.5843 47.7963 14.9863 47.4305L25.8197 37.5892C26.1038 37.3306 26.3101 37.0026 26.4169 36.6401C26.5237 36.2776 26.5269 35.8939 26.4263 35.5298L20.1972 12.8971L26.0667 5.34524C26.3081 5.03462 26.4551 4.66525 26.4912 4.27854C26.5274 3.89183 26.4512 3.50304 26.2713 3.15575C26.0913 2.80846 25.8147 2.51639 25.4724 2.31226C25.1301 2.10812 24.7357 2 24.3333 2H2.66667C2.26429 2 1.86986 2.10812 1.52758 2.31226C1.1853 2.51639 0.90869 2.80846 0.728742 3.15575C0.548794 3.50304 0.47262 3.89183 0.508756 4.27854C0.544891 4.66525 0.691908 5.03462 0.933334 5.34524L6.80283 12.8971L0.573667 35.5298C0.473046 35.8939 0.476305 36.2776 0.583098 36.6401C0.689891 37.0026 0.896248 37.3306 1.18033 37.5892ZM20 6.18155L16.75 10.3631H10.25L7 6.18155H20ZM10.8328 14.5447H16.1672L21.9067 35.4002L13.5 43.0357L5.09333 35.4002L10.8328 14.5447Z" fill="url(#paint0_linear_70_401)"/>
<path d="M52.98 37.52C50.8733 37.52 48.94 37.1067 47.18 36.28C45.42 35.4533 43.8867 34.3333 42.58 32.92C41.3 31.48 40.3 29.84 39.58 28C38.86 26.1333 38.5 24.1733 38.5 22.12C38.5 20.0667 38.8467 18.1067 39.54 16.24C40.26 14.3733 41.2733 12.7067 42.58 11.24C43.8867 9.77333 45.4333 8.61333 47.22 7.76C49.0067 6.90667 50.98 6.48 53.14 6.48C54.5267 6.48 55.7133 6.68 56.7 7.08C57.7133 7.45333 58.7533 8.04 59.82 8.84L61.58 6.84H62.58V16.08H61.38C61.0867 14.5333 60.5933 13.1467 59.9 11.92C59.2333 10.6667 58.3267 9.68 57.18 8.96C56.06 8.24 54.66 7.88 52.98 7.88C51.9933 7.88 51.0733 8.06666 50.22 8.44C49.3933 8.81333 48.6733 9.52 48.06 10.56C47.4467 11.5733 46.9667 13.0533 46.62 15C46.2733 16.92 46.1 19.44 46.1 22.56C46.1 25.3067 46.2333 27.5733 46.5 29.36C46.7933 31.12 47.2333 32.4933 47.82 33.48C48.4067 34.4667 49.1267 35.16 49.98 35.56C50.86 35.9333 51.8733 36.12 53.02 36.12C54.8333 36.12 56.34 35.76 57.54 35.04C58.7667 34.32 59.7267 33.3733 60.42 32.2C61.14 31 61.6467 29.7067 61.94 28.32H63.14V37H61.94L60.18 35.16C59.0333 35.9867 57.86 36.5867 56.66 36.96C55.4867 37.3333 54.26 37.52 52.98 37.52ZM81.3775 37.52C79.2975 37.52 77.3508 37.0933 75.5375 36.24C73.7508 35.3867 72.1775 34.2267 70.8175 32.76C69.4842 31.2933 68.4308 29.6267 67.6575 27.76C66.9108 25.8933 66.5375 23.9333 66.5375 21.88C66.5375 19.8267 66.9108 17.88 67.6575 16.04C68.4308 14.1733 69.4842 12.5333 70.8175 11.12C72.1775 9.68 73.7508 8.54667 75.5375 7.72C77.3508 6.89333 79.2975 6.48 81.3775 6.48C83.4575 6.48 85.4042 6.89333 87.2175 7.72C89.0308 8.54667 90.6042 9.68 91.9375 11.12C93.2975 12.5333 94.3508 14.1733 95.0975 16.04C95.8708 17.88 96.2575 19.8267 96.2575 21.88C96.2575 23.9333 95.8708 25.8933 95.0975 27.76C94.3508 29.6267 93.2975 31.2933 91.9375 32.76C90.6042 34.2267 89.0308 35.3867 87.2175 36.24C85.4042 37.0933 83.4575 37.52 81.3775 37.52ZM81.3375 36.12C82.6975 36.12 83.8442 35.92 84.7775 35.52C85.7108 35.0933 86.4575 34.36 87.0175 33.32C87.6042 32.28 88.0175 30.84 88.2575 29C88.5242 27.16 88.6575 24.8133 88.6575 21.96C88.6575 19.1067 88.5242 16.7733 88.2575 14.96C88.0175 13.12 87.6042 11.6933 87.0175 10.68C86.4575 9.64 85.7108 8.92 84.7775 8.52C83.8442 8.09333 82.6975 7.88 81.3375 7.88C80.0042 7.88 78.8708 8.09333 77.9375 8.52C77.0308 8.92 76.2975 9.62667 75.7375 10.64C75.1775 11.6533 74.7642 13.08 74.4975 14.92C74.2575 16.7333 74.1375 19.0533 74.1375 21.88C74.1375 24.7867 74.2575 27.1733 74.4975 29.04C74.7642 30.88 75.1775 32.32 75.7375 33.36C76.3242 34.3733 77.0708 35.0933 77.9775 35.52C78.9108 35.92 80.0308 36.12 81.3375 36.12ZM108.547 21.32V20.12H111.867C113.147 20.12 114.187 19.96 114.987 19.64C115.787 19.32 116.361 18.72 116.707 17.84C117.081 16.96 117.267 15.68 117.267 14C117.267 12.2933 117.094 11.0267 116.747 10.2C116.401 9.34667 115.881 8.77333 115.187 8.48C114.521 8.18666 113.681 8.04 112.667 8.04H98.6672V6.84H114.667C116.587 6.84 118.307 7.12 119.827 7.68C121.374 8.21333 122.601 8.98666 123.507 10C124.414 11.0133 124.867 12.2533 124.867 13.72C124.867 15.3467 124.347 16.7333 123.307 17.88C122.267 19 120.774 19.8533 118.827 20.44C116.907 21.0267 114.587 21.32 111.867 21.32H108.547ZM98.6672 37V35.8H113.507V37H98.6672ZM102.467 36.4V6.84H108.787V36.4H102.467ZM123.387 37C122.054 37 120.854 36.7467 119.787 36.24C118.721 35.7333 117.854 35.0267 117.187 34.12C116.547 33.1867 116.201 32.1067 116.147 30.88L115.947 26.52C115.867 24.7333 115.347 23.4267 114.387 22.6C113.427 21.7467 112.201 21.32 110.707 21.32L113.747 21.08H116.427V21.24C117.627 21.5067 118.787 22.0267 119.907 22.8C121.054 23.5733 121.987 24.5067 122.707 25.6C123.427 26.6933 123.787 27.88 123.787 29.16V30.96C123.787 32.8 123.987 34.0533 124.387 34.72C124.787 35.3867 125.507 35.72 126.547 35.72H128.067V37H123.387ZM138.157 23.32V22.12H141.477C142.943 22.12 144.13 21.9333 145.037 21.56C145.943 21.16 146.61 20.44 147.037 19.4C147.463 18.3333 147.677 16.8 147.677 14.8C147.677 12.9067 147.503 11.48 147.157 10.52C146.81 9.56 146.29 8.90667 145.597 8.56C144.93 8.21333 144.09 8.04 143.077 8.04H128.277V6.84H145.077C146.997 6.84 148.717 7.18667 150.237 7.88C151.783 8.57333 153.01 9.53333 153.917 10.76C154.823 11.96 155.277 13.3467 155.277 14.92C155.277 16.5733 154.717 18.04 153.597 19.32C152.503 20.5733 150.93 21.56 148.877 22.28C146.823 22.9733 144.357 23.32 141.477 23.32H138.157ZM128.277 37V35.8H143.117V37H128.277ZM132.077 36.4V6.84H138.397V36.4H132.077ZM156.824 37.52C155.864 37.52 155.037 37.1867 154.344 36.52C153.677 35.8267 153.344 35 153.344 34.04C153.344 33.08 153.677 32.2667 154.344 31.6C155.037 30.9067 155.864 30.56 156.824 30.56C157.784 30.56 158.597 30.9067 159.264 31.6C159.957 32.2667 160.304 33.08 160.304 34.04C160.304 35 159.957 35.8267 159.264 36.52C158.597 37.1867 157.784 37.52 156.824 37.52Z" fill="#E8E7EA"/>
<defs>
<linearGradient id="paint0_linear_70_401" x1="13.5" y1="2" x2="13.5" y2="48" gradientUnits="userSpaceOnUse">
<stop stop-color="#80E67C"/>
<stop offset="1" stop-color="#57AC67"/>
</linearGradient>
</defs>
</svg>
